<?xml version="1.0" encoding="UTF-8"?>
<svg version="1.1" xmlns="http://www.w3.org/2000/svg" width="599" height="416">
<path d="M0 0 C29.88288936 28.81122712 43.26049526 68.15914496 44.03125 109.015625 C44.06268858 110.96874697 44.09393633 112.92187203 44.125 114.875 C44.16327523 116.88282766 44.20233211 118.89064058 44.2421875 120.8984375 C44.33712534 125.76550219 44.42152512 130.63264318 44.5 135.5 C41.6859339 137.0864272 39.67517929 137.74938131 36.4498415 137.74330235 C35.64827981 137.74666774 34.84671813 137.75003314 34.02086669 137.75350052 C33.14606397 137.74699272 32.27126124 137.74048492 31.36994934 137.73377991 C30.43618727 137.73478319 29.5024252 137.73578647 28.54036731 137.73682016 C25.40418723 137.73777456 22.26823001 137.7244175 19.13208008 137.71118164 C16.88683642 137.70898101 14.64159173 137.70767507 12.39634705 137.7071991 C7.55852717 137.70426315 2.7207747 137.69500722 -2.11702538 137.68089485 C-9.7585429 137.65867057 -17.40003524 137.65054595 -25.0415802 137.64439392 C-35.74738194 137.6343016 -46.45315319 137.61793488 -57.15893555 137.59594727 C-58.17793932 137.5938573 -58.17793932 137.5938573 -59.21752904 137.5917251 C-60.23784132 137.58963181 -60.23784132 137.58963181 -61.27876598 137.58749622 C-70.92990026 137.5677145 -80.58103552 137.5498902 -90.23217773 137.53442383 C-90.91159643 137.53333298 -91.59101512 137.53224213 -92.29102226 137.53111822 C-103.60370437 137.51311948 -114.91638878 137.49915648 -126.22907907 137.48725218 C-133.83403304 137.47881801 -141.4389506 137.46476653 -149.04388654 137.44627964 C-153.76276728 137.43567641 -158.48164765 137.42906725 -163.20053673 137.42347908 C-165.39803921 137.41999311 -167.59553967 137.41476248 -169.7930336 137.40771103 C-172.77900287 137.39833613 -175.76491831 137.39499294 -178.75090027 137.39320374 C-179.63239516 137.38892665 -180.51389005 137.38464957 -181.42209691 137.38024288 C-185.27074469 137.00370954 -185.27074469 137.00370954 -188.5 138.5 C-179.42554332 168.92611945 -162.76318185 193.76862135 -134.57617188 209.57910156 C-117.97854353 218.36251802 -100.02590886 222.91392783 -81.25 222.8125 C-79.61647583 222.80512817 -79.61647583 222.80512817 -77.94995117 222.79760742 C-64.98217736 222.61039221 -53.49686065 220.30130142 -41.48828125 215.390625 C-38.16500968 214.40015975 -36.71367046 214.23226961 -33.5 215.5 C-31.10546875 217.65234375 -31.10546875 217.65234375 -28.6875 220.4375 C-27.82769531 221.4275 -26.96789062 222.4175 -26.08203125 223.4375 C-25.22083235 224.45789315 -24.36014652 225.47871958 -23.5 226.5 C-22.69949219 227.428125 -21.89898437 228.35625 -21.07421875 229.3125 C-15.5 235.96591918 -15.5 235.96591918 -15.5 240.5 C-54.57937387 257.28284992 -94.16195202 261.30194727 -134.66064453 245.66650391 C-151.90077806 238.58367003 -167.06531618 228.3776903 -180.5 215.5 C-181.30824219 214.75492188 -182.11648437 214.00984375 -182.94921875 213.2421875 C-202.66560057 194.48531563 -215.34687767 169.18598995 -220.80859375 142.7109375 C-221.33363537 139.62530196 -221.33363537 139.62530196 -222.5 137.5 C-223.48527679 137.50222061 -224.47055359 137.50444122 -225.48568726 137.50672913 C-234.75623347 137.52697219 -244.02677521 137.54197778 -253.29733849 137.55181217 C-258.0637949 137.55703803 -262.83023352 137.56413031 -267.59667969 137.57543945 C-272.1937439 137.58627885 -276.79079097 137.59227908 -281.38786697 137.59487724 C-283.14460139 137.59672958 -284.90133484 137.60034657 -286.65806198 137.60573006 C-289.11239424 137.61295443 -291.56665497 137.61399035 -294.02099609 137.61352539 C-295.11827278 137.6189183 -295.11827278 137.6189183 -296.23771667 137.62442017 C-301.27189568 137.61405216 -301.27189568 137.61405216 -303.5 136.5 C-303.5 127.59 -303.5 118.68 -303.5 109.5 C-277.43 109.17 -251.36 108.84 -224.5 108.5 C-223.18 98.93 -221.86 89.36 -220.5 79.5 C-213.20764848 54.28576764 -202.74627634 33.47979499 -184.5 14.5 C-183.65824219 13.60667969 -182.81648438 12.71335938 -181.94921875 11.79296875 C-135.0688267 -36.71568584 -51.6477435 -46.73616927 0 0 Z M-144.5 21.5 C-144.5 22.82 -144.5 24.14 -144.5 25.5 C-143.88125 25.7475 -143.2625 25.995 -142.625 26.25 C-140.07031283 27.75275716 -139.80140753 28.89718494 -138.5 31.5 C-136.86395804 32.87073786 -135.19321939 34.20055256 -133.5 35.5 C-131.81702788 37.1502001 -130.1536367 38.82040445 -128.5 40.5 C-127.40369918 41.6074723 -126.3070808 42.7146303 -125.21020508 43.8215332 C-124.61641556 44.42177811 -124.02262604 45.02202301 -123.4108429 45.64045715 C-120.74928329 48.32877214 -118.08241114 51.01179079 -115.4152832 53.69458008 C-114.00628456 55.11372129 -112.59907372 56.53463964 -111.19360352 57.95727539 C-109.1610575 60.01394799 -107.12223643 62.06420994 -105.08203125 64.11328125 C-104.45182571 64.75380936 -103.82162018 65.39433746 -103.1723175 66.05427551 C-101.65237114 67.57461482 -100.08073023 69.04296174 -98.5 70.5 C-97.84 70.5 -97.18 70.5 -96.5 70.5 C-96.29375 71.056875 -96.0875 71.61375 -95.875 72.1875 C-93.98105476 75.37277155 -91.38323975 77.20517652 -88.5 79.5 C-87.48319689 80.48290968 -86.47261781 81.47334787 -85.5 82.5 C-80.13832773 79.81751209 -76.34771622 75.58149488 -72.19921875 71.359375 C-71.40401321 70.5589679 -70.60880768 69.75856079 -69.789505 68.93389893 C-67.25069652 66.37731261 -64.71866621 63.81415107 -62.1875 61.25 C-59.66622495 58.70097089 -57.14346019 56.15346352 -54.61763 53.60894775 C-53.04869326 52.02790442 -51.48243518 50.4441967 -49.9193573 48.85736084 C-45.83371272 44.73486257 -41.66281679 40.79159234 -37.25201416 37.01782227 C-34.5766667 34.70008875 -32.07447558 32.24436004 -29.5625 29.75 C-28.62535156 28.82703125 -27.68820312 27.9040625 -26.72265625 26.953125 C-24.3205885 24.63282979 -24.3205885 24.63282979 -23.5 21.5 C-55.69848941 -3.92325617 -112.06492277 -6.29330823 -144.5 21.5 Z M-158.19140625 32.79296875 C-177.51834179 52.36199534 -190.77583826 77.9074672 -191.59765625 105.81640625 C-191.80790234 108.41907246 -191.80790234 108.41907246 -190.5 109.5 C-185.92615316 109.84064107 -181.35008517 109.89980181 -176.76489258 109.95996094 C-175.22551143 109.98644353 -173.68630337 110.02723178 -172.14770508 110.08300781 C-161.86719841 110.739222 -161.86719841 110.739222 -152.9375 106.4296875 C-151.76582803 105.14285188 -150.61959374 103.83239295 -149.5 102.5 C-148.19300619 101.26815465 -146.87103358 100.0520239 -145.53515625 98.8515625 C-144.20931292 97.61110913 -142.88512043 96.36888918 -141.5625 95.125 C-140.86592285 94.47160645 -140.1693457 93.81821289 -139.45166016 93.14501953 C-134.99050092 88.94573127 -130.62735069 84.66611007 -126.33203125 80.296875 C-124.63905596 78.63638751 -122.90284065 77.11835518 -121.0625 75.625 C-118.34519628 73.57805275 -118.34519628 73.57805275 -116.5 70.5 C-116.58374723 66.14514409 -120.00910102 63.58537487 -122.9375 60.75 C-123.44087891 60.24339844 -123.94425781 59.73679687 -124.46289062 59.21484375 C-127.0106421 56.37456566 -127.0106421 56.37456566 -130.5 55.5 C-130.70367187 54.95859375 -130.90734375 54.4171875 -131.1171875 53.859375 C-133.05383056 50.55504616 -135.78976897 48.26469885 -138.625 45.75 C-143.23836482 41.59682438 -147.68083324 37.37561146 -151.9140625 32.828125 C-154.25135249 30.87078856 -155.79559088 30.96152559 -158.19140625 32.79296875 Z M-18.10058594 32.8894043 C-18.72223633 33.52789307 -19.34388672 34.16638184 -19.984375 34.82421875 C-20.67273438 35.52353516 -21.36109375 36.22285156 -22.0703125 36.94335938 C-22.78960937 37.68392578 -23.50890625 38.42449219 -24.25 39.1875 C-28.83307955 43.88389745 -33.39120255 48.37804306 -38.5 52.5 C-40.18933922 54.1436814 -41.85259924 55.8142876 -43.5 57.5 C-44.25152344 58.21800781 -45.00304687 58.93601562 -45.77734375 59.67578125 C-47.00130859 60.85720703 -47.00130859 60.85720703 -48.25 62.0625 C-49.41789063 63.17818359 -49.41789063 63.17818359 -50.609375 64.31640625 C-52.56975699 66.58056644 -53.23757114 67.56148287 -53.5 70.5 C-52.28740331 72.42146709 -52.28740331 72.42146709 -50.37890625 74.14453125 C-49.68990234 74.82193359 -49.00089844 75.49933594 -48.29101562 76.19726562 C-47.55560547 76.89529297 -46.82019531 77.59332031 -46.0625 78.3125 C-45.0115918 79.34213867 -45.0115918 79.34213867 -43.93945312 80.39257812 C-39.84274666 84.37622002 -35.62972144 88.19705411 -31.29077148 91.91479492 C-29.4507306 93.54361367 -27.72044809 95.24596959 -26 97 C-22.87548021 100.18198222 -19.58189521 103.11534733 -16.19921875 106.01953125 C-14.92270555 107.13171172 -13.69716986 108.30283014 -12.5 109.5 C-9.97622345 109.77808217 -9.97622345 109.77808217 -7.0546875 109.6953125 C-5.97832031 109.68886719 -4.90195312 109.68242187 -3.79296875 109.67578125 C-2.66503906 109.65902344 -1.53710938 109.64226562 -0.375 109.625 C0.76066406 109.61597656 1.89632812 109.60695313 3.06640625 109.59765625 C5.87781299 109.57403098 8.68880298 109.54109013 11.5 109.5 C16.86359745 91.94846189 5.62539125 63.15105124 -2.5 47.5 C-5.94431673 41.72609696 -9.42345138 35.98674214 -14.5 31.5 C-16.60152883 31.28148963 -16.60152883 31.28148963 -18.10058594 32.8894043 Z M-110.04296875 79.78515625 C-110.58566406 80.37167969 -111.12835938 80.95820313 -111.6875 81.5625 C-114.05612813 84.03923979 -116.44030503 86.35670509 -119.0625 88.5625 C-123.88828751 92.70296857 -128.30330534 97.25246679 -132.75219727 101.78930664 C-133.33670654 102.38219482 -133.92121582 102.97508301 -134.5234375 103.5859375 C-135.04856934 104.1226709 -135.57370117 104.6594043 -136.11474609 105.21240234 C-137.5 106.5 -137.5 106.5 -139.5 107.5 C-139.5 108.16 -139.5 108.82 -139.5 109.5 C-103.53 109.5 -67.56 109.5 -30.5 109.5 C-32.22323579 106.05352842 -33.08375874 104.69826877 -35.7734375 102.25 C-36.42787842 101.64671875 -37.08231934 101.0434375 -37.7565918 100.421875 C-38.4556665 99.78765625 -39.15474121 99.1534375 -39.875 98.5 C-48.22243649 90.8568814 -48.22243649 90.8568814 -52.05078125 86.8125 C-52.58461426 86.25175781 -53.11844727 85.69101563 -53.66845703 85.11328125 C-54.66011658 84.0601012 -55.63966404 82.99534568 -56.60498047 81.91796875 C-58.63182816 79.77994997 -59.90324711 78.56153099 -62.88671875 78.25390625 C-66.91478292 80.17461248 -69.59216876 83.21631398 -72.625 86.4375 C-73.85461424 87.71951984 -75.0863066 88.99955054 -76.3203125 90.27734375 C-76.85930176 90.84702881 -77.39829102 91.41671387 -77.95361328 92.00366211 C-80.15637609 94.13513247 -81.86718039 95.41582688 -84.9375 95.82421875 C-88.10380259 95.42360424 -89.20028006 94.48703358 -91.5 92.3125 C-92.18707031 91.67183594 -92.87414062 91.03117187 -93.58203125 90.37109375 C-96.83232539 87.20023653 -100.02627107 84.00756671 -103.125 80.6875 C-105.70920203 78.30731392 -107.13448056 77.3626433 -110.04296875 79.78515625 Z " fill="#3D3938" transform="translate(311.5,100.5)"/>
<path d="M0 0 C1.82339837 1.18111384 3.5491822 2.40465095 5.08984375 3.9453125 C5.46109375 2.49125 5.46109375 2.49125 5.83984375 1.0078125 C6.25234375 -0.0028125 6.66484375 -1.0134375 7.08984375 -2.0546875 C11.0753697 -3.57285684 15.1723322 -2.93748212 19.33984375 -2.6171875 C20.08492188 -2.56498047 20.83 -2.51277344 21.59765625 -2.45898438 C23.42879236 -2.3298658 25.25938188 -2.19303636 27.08984375 -2.0546875 C28.09428058 11.82806439 28.26240898 25.6445636 28.1126709 39.55950928 C28.08666596 42.27744269 28.06912453 44.99537678 28.05175781 47.71337891 C28.01472635 53.14403478 27.95364719 58.57408294 27.88031006 64.00436401 C27.85355483 66.19677932 27.83314225 68.38928216 27.81939697 70.58181763 C27.70733422 86.87515248 27.39583378 100.28481667 15.5 112.58984375 C10.96795849 116.80197644 5.75480629 119.52872879 0.08984375 121.9453125 C-0.7609375 122.31398438 -1.61171875 122.68265625 -2.48828125 123.0625 C-7.52349537 124.36153926 -12.4179339 124.31392173 -17.59765625 124.3203125 C-18.62310547 124.34480469 -19.64855469 124.36929688 -20.70507812 124.39453125 C-31.93440598 124.43709345 -41.92441826 120.67700096 -50.91015625 113.9453125 C-53.44992652 111.42374847 -55.73384927 108.78460042 -57.91015625 105.9453125 C-56.52794538 101.7912884 -54.6462921 99.19580472 -51.59765625 96.0703125 C-50.83839844 95.26851563 -50.07914062 94.46671875 -49.296875 93.640625 C-46.91015625 91.9453125 -46.91015625 91.9453125 -44.26171875 92.04296875 C-41.03267324 93.2820211 -39.34906671 95.50640204 -36.91015625 97.9453125 C-28.17870292 103.3335617 -18.03423299 104.62778676 -8.015625 102.26171875 C-2.4032342 100.23385341 0.95207236 98.04419101 4.08984375 92.9453125 C6.30320821 87.40604588 6.33524939 81.83504781 6.08984375 75.9453125 C5.47109375 76.5228125 4.85234375 77.1003125 4.21484375 77.6953125 C-4.56521182 84.01695251 -14.19041629 85.72095023 -24.78515625 84.3828125 C-35.20165666 82.36110098 -44.45644975 77.47806539 -50.91015625 68.9453125 C-58.63376515 56.99922948 -61.21823088 43.65843652 -58.765625 29.74609375 C-56.16850359 18.20728491 -51.30927214 9.62199926 -41.66015625 2.6953125 C-28.9953451 -5.12141748 -13.5001193 -7.4540536 0 0 Z M-32.91015625 22.9453125 C-38.31290881 30.33310195 -38.79117691 38.04290605 -37.91015625 46.9453125 C-35.7430379 54.36819917 -31.59429601 59.15576883 -24.91015625 62.9453125 C-18.36236254 65.1279104 -9.68688923 65.2470465 -3.34765625 62.3203125 C2.07669859 59.00542899 5.58205766 54.2585373 7.5859375 48.28125 C9.5569958 39.14409602 8.33981946 31.05241719 3.33984375 23.1953125 C-1.91715052 17.93831823 -7.42280746 16.17399111 -14.72265625 15.6953125 C-21.54604191 15.79811304 -27.67382071 18.66103797 -32.91015625 22.9453125 Z " fill="#3C3938" transform="translate(439.91015625,260.0546875)"/>
<path d="M0 0 C1.65394117 1.65394117 1.12999683 3.60315413 1.1328125 5.875 C1.13410156 6.85984375 1.13539063 7.8446875 1.13671875 8.859375 C1.13285156 9.89578125 1.12898437 10.9321875 1.125 12 C1.12886719 13.03640625 1.13273438 14.0728125 1.13671875 15.140625 C1.13478516 16.61789063 1.13478516 16.61789063 1.1328125 18.125 C1.13168457 19.03507812 1.13055664 19.94515625 1.12939453 20.8828125 C1 23 1 23 0 24 C-1.70121348 24.18077518 -3.40898989 24.30036175 -5.1171875 24.39453125 C-31.71009015 26.0326157 -55.50530328 31.14705634 -79 44 C-80.08152344 44.58910156 -81.16304688 45.17820313 -82.27734375 45.78515625 C-93.2317064 51.97430066 -102.87107517 59.36453056 -112 68 C-112.80050781 68.73605469 -113.60101563 69.47210938 -114.42578125 70.23046875 C-140.78665051 95.3300524 -155.06446793 129.72004913 -159.5703125 165.33203125 C-160 168 -160 168 -161 169 C-162.70772358 169.08713831 -164.41898649 169.10700007 -166.12890625 169.09765625 C-167.68061523 169.09282227 -167.68061523 169.09282227 -169.26367188 169.08789062 C-170.35228516 169.07951172 -171.44089844 169.07113281 -172.5625 169.0625 C-174.2012207 169.05573242 -174.2012207 169.05573242 -175.87304688 169.04882812 C-178.58208495 169.03699826 -181.29101599 169.02051543 -184 169 C-185.03733663 165.74477923 -184.94257448 163.34966813 -184.3984375 159.9921875 C-184.24068848 159.01435303 -184.08293945 158.03651855 -183.92041016 157.02905273 C-183.7404248 155.98821533 -183.56043945 154.94737793 -183.375 153.875 C-183.19114746 152.8012915 -183.00729492 151.72758301 -182.81787109 150.62133789 C-177.63570769 121.47763146 -165.95629319 94.57594792 -148 71 C-147.34515625 70.13761719 -146.6903125 69.27523437 -146.015625 68.38671875 C-132.63227544 51.40596508 -116.33573491 37.38315141 -98 26 C-97.15526123 25.47092041 -97.15526123 25.47092041 -96.29345703 24.93115234 C-77.07369078 13.0426912 -56.033526 6.46417692 -34 2 C-33.29552734 1.85449707 -32.59105469 1.70899414 -31.86523438 1.55908203 C-21.40414968 -0.52043137 -10.62292596 -0.44826871 0 0 Z " fill="#F0A532" transform="translate(234,32)"/>
<path d="M0 0 C7.59 0 15.18 0 23 0 C26 9 26 9 27.140625 12.59765625 C34.86828985 36.73300385 46.4680123 57.47670444 64 76 C64.87011719 76.94617188 65.74023438 77.89234375 66.63671875 78.8671875 C95.39008627 109.44045169 137.04995935 123.32996853 178.140625 124.69140625 C179.55601562 124.84416016 179.55601562 124.84416016 181 125 C182.21858107 127.43716215 182.12925575 129.03274057 182.1328125 131.75390625 C182.13410156 132.69041016 182.13539063 133.62691406 182.13671875 134.59179688 C182.13285156 135.57212891 182.12898437 136.55246094 182.125 137.5625 C182.12886719 138.54669922 182.13273438 139.53089844 182.13671875 140.54492188 C182.13478516 141.94774414 182.13478516 141.94774414 182.1328125 143.37890625 C182.13168457 144.2407251 182.13055664 145.10254395 182.12939453 145.99047852 C182 148 182 148 181 149 C140.3832967 152.00089045 95.9922583 135.78474997 65 110 C64.49001465 109.57879883 63.9800293 109.15759766 63.45458984 108.72363281 C52.34000254 99.51009837 41.2072928 89.97983814 33 78 C32.20853387 76.91947067 31.41539758 75.84016379 30.62109375 74.76171875 C15.63756549 54.09431344 3.19029392 29.41906235 -1 4 C-0.67 2.68 -0.34 1.36 0 0 Z " fill="#E44D30" transform="translate(53,246)"/>
<path d="M0 0 C0.763125 0.5775 1.52625 1.155 2.3125 1.75 C2.68375 0.2959375 2.68375 0.2959375 3.0625 -1.1875 C3.475 -2.198125 3.8875 -3.20875 4.3125 -4.25 C8.3125 -5.25 8.3125 -5.25 24.3125 -4.25 C24.3125 24.79 24.3125 53.83 24.3125 83.75 C20.59504693 84.98915102 17.12126619 84.93407713 13.25 84.9375 C12.51716797 84.94974609 11.78433594 84.96199219 11.02929688 84.97460938 C9.12223493 84.97986299 7.21565114 84.87218272 5.3125 84.75 C3.3125 82.75 3.3125 82.75 3.1875 80.125 C3.22875 79.34125 3.27 78.5575 3.3125 77.75 C1.86617187 78.49056641 1.86617187 78.49056641 0.390625 79.24609375 C-0.88530852 79.89344237 -2.16135621 80.54056599 -3.4375 81.1875 C-4.38882813 81.67573242 -4.38882813 81.67573242 -5.359375 82.17382812 C-14.33579951 86.70879259 -24.21523103 87.23631982 -34 84.625 C-44.76392798 80.81974886 -52.98497096 73.0355895 -58.5 63.125 C-64.8113681 49.30417359 -65.31176418 33.83224875 -60.03515625 19.62890625 C-54.86773266 8.59009121 -46.41554874 -0.36941491 -34.9375 -4.75 C-22.70593854 -8.26716273 -10.7043767 -6.98653957 0 0 Z M-37.6875 22.75 C-42.50774786 30.3429568 -42.7671251 39.01911876 -41.6875 47.75 C-39.17472187 55.98335814 -34.84216107 60.43297748 -27.4375 64.5625 C-20.61181805 66.72396595 -15.00523139 66.6800152 -8.4375 63.6875 C-2.08961755 60.16422562 1.99807987 55.65283384 4.3125 48.75 C6.0298365 38.89791167 5.05610465 31.34273256 0.6875 22.4375 C-4.36425675 16.72103841 -10.93221708 14.00035219 -18.4375 13.5 C-26.13007785 13.64271944 -32.73175257 16.85328787 -37.6875 22.75 Z " fill="#3C3837" transform="translate(545.6875,262.25)"/>
<path d="M0 0 C4.47994678 2.92567953 4.47994678 2.92567953 5.890625 5.83984375 C6 8 6 8 4.19921875 10.25390625 C3.37035156 11.01574219 2.54148437 11.77757812 1.6875 12.5625 C-0.93342347 15.00238637 -3.00614453 17.00921679 -5 20 C-7.51767991 19.58038668 -9.6409418 19.1924316 -11.90234375 17.98046875 C-16.72855853 15.72464024 -21.89171382 16.65479611 -26.8125 18.1875 C-31.26032069 20.71665294 -33.29203309 23.1042433 -35.07958984 27.89086914 C-36.54923847 33.32012464 -36.35770848 38.90979916 -36.4140625 44.49609375 C-36.43342865 45.68477554 -36.4527948 46.87345734 -36.4727478 48.09815979 C-36.53231089 51.8778679 -36.5788363 55.65760684 -36.625 59.4375 C-36.66320114 62.00717441 -36.70225411 64.5768363 -36.7421875 67.14648438 C-36.83799337 73.43087814 -36.92310859 79.71534787 -37 86 C-40.28353549 87.64176774 -43.89519638 87.18454039 -47.5 87.1875 C-48.28503906 87.19974609 -49.07007813 87.21199219 -49.87890625 87.22460938 C-51.92063726 87.22986254 -53.96192251 87.1222018 -56 87 C-58.54164316 84.45835684 -58.2396178 82.84511354 -58.25994873 79.37916565 C-58.25432922 78.59468552 -58.24870972 77.81020538 -58.24291992 77.00195312 C-58.24481827 76.17582016 -58.24671661 75.34968719 -58.24867249 74.4985199 C-58.25238646 71.75933433 -58.24166722 69.02041212 -58.23046875 66.28125 C-58.22927718 64.38317903 -58.22882374 62.48510746 -58.2290802 60.58703613 C-58.22751425 56.60567544 -58.21921617 52.62440452 -58.20581055 48.64306641 C-58.18882056 43.53152293 -58.18499615 38.42007822 -58.18575573 33.30850983 C-58.18548421 29.38811291 -58.18000582 25.46773772 -58.17275429 21.54734802 C-58.16956496 19.66222803 -58.1675996 17.77710557 -58.16686058 15.89198303 C-58.16469981 13.26062805 -58.15596125 10.62937918 -58.14526367 7.99804688 C-58.14571686 7.21356674 -58.14617004 6.42908661 -58.14663696 5.62083435 C-58.11447712 0.22895425 -58.11447712 0.22895425 -57 -2 C-50.4 -2 -43.8 -2 -37 -2 C-36.34 -0.35 -35.68 1.3 -35 3 C-34.360625 2.401875 -33.72125 1.80375 -33.0625 1.1875 C-22.84810178 -6.10849873 -10.85653954 -5.71190909 0 0 Z " fill="#3C3938" transform="translate(374,260)"/>
<path d="M0 0 C6.6 0 13.2 0 20 0 C20.66 1.65 21.32 3.3 22 5 C22.33 5.66 22.66 6.32 23 7 C22.34 7 21.68 7 21 7 C21 7.66 21 8.32 21 9 C20.34 9 19.68 9 19 9 C19 6.36 19 3.72 19 1 C13.06 1 7.12 1 1 1 C1 29.71 1 58.42 1 88 C0.34 87.67 -0.32 87.34 -1 87 C-1.02313508 75.95192216 -1.04092106 64.90385005 -1.05181217 53.85575294 C-1.05703844 48.72609224 -1.06413146 43.59644806 -1.07543945 38.46679688 C-1.0862774 33.51960461 -1.09227877 28.57242828 -1.09487724 23.62522507 C-1.09672985 21.73451868 -1.10034733 19.84381319 -1.10573006 17.95311356 C-1.1129525 15.31198467 -1.11399043 12.67092227 -1.11352539 10.02978516 C-1.11712067 9.24216293 -1.12071594 8.45454071 -1.12442017 7.64305115 C-1.11405216 2.22810432 -1.11405216 2.22810432 0 0 Z " fill="#222120" transform="translate(317,258)"/>
<path d="M0 0 C0.80566406 0.04833984 1.61132812 0.09667969 2.44140625 0.14648438 C3.28316406 0.20255859 4.12492187 0.25863281 4.9921875 0.31640625 C6.26642578 0.3947168 6.26642578 0.3947168 7.56640625 0.47460938 C9.66697874 0.60442003 11.76712941 0.74102365 13.8671875 0.87890625 C16.10456841 31.80270669 14.56465101 62.91746938 13.8671875 93.87890625 C13.5371875 93.87890625 13.2071875 93.87890625 12.8671875 93.87890625 C12.8671875 63.51890625 12.8671875 33.15890625 12.8671875 1.87890625 C6.9271875 1.87890625 0.9871875 1.87890625 -5.1328125 1.87890625 C-5.1328125 4.51890625 -5.1328125 7.15890625 -5.1328125 9.87890625 C-6.1228125 9.54890625 -7.1128125 9.21890625 -8.1328125 8.87890625 C-7.85130163 7.56419057 -7.55727911 6.25214858 -7.2578125 4.94140625 C-7.09539062 4.21050781 -6.93296875 3.47960937 -6.765625 2.7265625 C-5.5868322 -0.71522142 -3.16218996 -0.20042049 0 0 Z " fill="#232122" transform="translate(453.1328125,257.12109375)"/>
<path d="M0 0 C0.66 0.33 1.32 0.66 2 1 C-1.51330798 6.77186312 -1.51330798 6.77186312 -4 7.9375 C-6.39866292 9.21178968 -6.76989222 10.1887764 -8 12.5625 C-10 16 -10 16 -12.125 16.6875 C-12.74375 16.790625 -13.3625 16.89375 -14 17 C-15.1500831 18.96672915 -15.1500831 18.96672915 -16 21 C-16.66 21.33 -17.32 21.66 -18 22 C-18.309375 22.825 -18.61875 23.65 -18.9375 24.5 C-19.288125 25.325 -19.63875 26.15 -20 27 C-20.99 27.33 -21.98 27.66 -23 28 C-24.22520264 31.00847418 -24.22520264 31.00847418 -25 34 C-25.99 33.67 -26.98 33.34 -28 33 C-26.52445022 28.39319632 -23.88994674 25.14220103 -20.75 21.5625 C-20.23147461 20.96356934 -19.71294922 20.36463867 -19.17871094 19.74755859 C-13.1158075 12.84188642 -6.58177796 6.40652351 0 0 Z " fill="#BD8631" transform="translate(110,77)"/>
<path d="M0 0 C0.05506505 1.52040718 0.09326375 3.04142704 0.125 4.5625 C0.14820312 5.40941406 0.17140625 6.25632813 0.1953125 7.12890625 C0 10 0 10 -2 17 C-9.59 17 -17.18 17 -25 17 C-26.04973814 12.80104745 -25.72795155 10.20594226 -25 6 C-24.67 6 -24.34 6 -24 6 C-24 9.3 -24 12.6 -24 16 C-17.07 16 -10.14 16 -3 16 C-3.33 13.36 -3.66 10.72 -4 8 C-3.6875 4.0625 -3.6875 4.0625 -3 1 C-1 0 -1 0 0 0 Z " fill="#986A2E" transform="translate(75,184)"/>
<path d="M0 0 C0.9583374 0.00523682 1.9166748 0.01047363 2.90405273 0.01586914 C4.45576172 0.02070313 4.45576172 0.02070313 6.03881836 0.02563477 C7.12743164 0.03401367 8.21604492 0.04239258 9.33764648 0.05102539 C10.97636719 0.05779297 10.97636719 0.05779297 12.64819336 0.06469727 C15.35723144 0.07652713 18.06616248 0.09300996 20.77514648 0.11352539 C20.77514648 0.44352539 20.77514648 0.77352539 20.77514648 1.11352539 C14.17514648 1.11352539 7.57514648 1.11352539 0.77514648 1.11352539 C0.44514648 5.07352539 0.11514648 9.03352539 -0.22485352 13.11352539 C-0.55485352 13.11352539 -0.88485352 13.11352539 -1.22485352 13.11352539 C-1.58583415 11.13559018 -1.938467 9.15612966 -2.28735352 7.17602539 C-2.48458008 6.07387695 -2.68180664 4.97172852 -2.88500977 3.83618164 C-2.9971582 2.93770508 -3.10930664 2.03922852 -3.22485352 1.11352539 C-2.22485352 0.11352539 -2.22485352 0.11352539 0 0 Z " fill="#792B22" transform="translate(55.224853515625,245.886474609375)"/>
<path d="M0 0 C0.33 0.66 0.66 1.32 1 2 C-0.47169811 5.73584906 -0.47169811 5.73584906 -3 7 C-3.309375 7.825 -3.61875 8.65 -3.9375 9.5 C-4.288125 10.325 -4.63875 11.15 -5 12 C-5.99 12.33 -6.98 12.66 -8 13 C-9.22520264 16.00847418 -9.22520264 16.00847418 -10 19 C-10.99 18.67 -11.98 18.34 -13 18 C-11.4805627 13.1396313 -8.67081346 9.93920644 -5.375 6.1875 C-4.859375 5.59001953 -4.34375 4.99253906 -3.8125 4.37695312 C-2.54753728 2.91287591 -1.27456166 1.45572845 0 0 Z " fill="#9F6F2C" transform="translate(95,92)"/>
<path d="M0 0 C0.83944178 3.35776713 1.27688169 6.32258026 1.5625 9.75 C1.64628906 10.73484375 1.73007812 11.7196875 1.81640625 12.734375 C1.87699219 13.48203125 1.93757813 14.2296875 2 15 C1.01 15.495 1.01 15.495 0 16 C-0.66 15.67 -1.32 15.34 -2 15 C-2 16.32 -2 17.64 -2 19 C-2.66 18.67 -3.32 18.34 -4 18 C-2.68 12.06 -1.36 6.12 0 0 Z " fill="#A87627" transform="translate(55,165)"/>
<path d="M0 0 C1.34882814 2.69765628 0.80338265 4.15164334 0 7 C-0.99 7.495 -0.99 7.495 -2 8 C-1.9175 8.7425 -1.835 9.485 -1.75 10.25 C-2 13 -2 13 -3.875 15.3125 C-6 17 -6 17 -8 17 C-6.19389405 10.65660349 -3.74372266 5.43061745 0 0 Z " fill="#B17E2D" transform="translate(74,121)"/>
<path d="M0 0 C6.6 0 13.2 0 20 0 C20.66 1.65 21.32 3.3 22 5 C22.33 5.66 22.66 6.32 23 7 C22.34 7 21.68 7 21 7 C21 7.66 21 8.32 21 9 C20.34 9 19.68 9 19 9 C19 6.36 19 3.72 19 1 C12.73 1 6.46 1 0 1 C0 0.67 0 0.34 0 0 Z " fill="#191716" transform="translate(317,258)"/>
<path d="M0 0 C0.80566406 0.04833984 1.61132812 0.09667969 2.44140625 0.14648438 C3.28316406 0.20255859 4.12492187 0.25863281 4.9921875 0.31640625 C6.26642578 0.3947168 6.26642578 0.3947168 7.56640625 0.47460938 C9.66697874 0.60442003 11.76712941 0.74102365 13.8671875 0.87890625 C13.8671875 1.20890625 13.8671875 1.53890625 13.8671875 1.87890625 C7.5971875 1.87890625 1.3271875 1.87890625 -5.1328125 1.87890625 C-5.1328125 4.51890625 -5.1328125 7.15890625 -5.1328125 9.87890625 C-6.1228125 9.54890625 -7.1128125 9.21890625 -8.1328125 8.87890625 C-7.85130163 7.56419057 -7.55727911 6.25214858 -7.2578125 4.94140625 C-7.09539062 4.21050781 -6.93296875 3.47960937 -6.765625 2.7265625 C-5.5868322 -0.71522142 -3.16218996 -0.20042049 0 0 Z " fill="#151414" transform="translate(453.1328125,257.12109375)"/>
<path d="M0 0 C1.32 0.33 2.64 0.66 4 1 C2.85793642 2.50287218 1.71125043 4.00223284 0.5625 5.5 C-0.39462891 6.75296875 -0.39462891 6.75296875 -1.37109375 8.03125 C-1.90863281 8.6809375 -2.44617188 9.330625 -3 10 C-3.33 10 -3.66 10 -4 10 C-3.67 7.36 -3.34 4.72 -3 2 C-2.01 2 -1.02 2 0 2 C0 1.34 0 0.68 0 0 Z " fill="#B57E2D" transform="translate(104,114)"/>
<path d="M0 0 C0.66 0.33 1.32 0.66 2 1 C2 4.63 2 8.26 2 12 C1.01 11.34 0.02 10.68 -1 10 C-1.6875 6.375 -1.6875 6.375 -2 3 C-1.34 3 -0.68 3 0 3 C0 2.01 0 1.02 0 0 Z " fill="#C64730" transform="translate(57,256)"/>
<path d="M0 0 C0.66 0.33 1.32 0.66 2 1 C-1.63 4.63 -5.26 8.26 -9 12 C-9.66 11.67 -10.32 11.34 -11 11 C-9.92173635 9.72486237 -8.83714481 8.45507431 -7.75 7.1875 C-7.14671875 6.47980469 -6.5434375 5.77210938 -5.921875 5.04296875 C-4.07629602 3.08110329 -2.20054668 1.54330375 0 0 Z " fill="#262424" transform="translate(502,262)"/>
<path d="M0 0 C1.65 0.33 3.3 0.66 5 1 C3.02 3.31 1.04 5.62 -1 8 C-1.33 7.01 -1.66 6.02 -2 5 C-2.66 4.67 -3.32 4.34 -4 4 C-3.67 3.34 -3.34 2.68 -3 2 C-1.68 2 -0.36 2 1 2 C0.67 1.34 0.34 0.68 0 0 Z " fill="#B37E29" transform="translate(116,99)"/>
<path d="M0 0 C1.32 0 2.64 0 4 0 C4 0.66 4 1.32 4 2 C5.32 2.33 6.64 2.66 8 3 C8 3.99 8 4.98 8 6 C8.66 6.33 9.32 6.66 10 7 C6.433255 7 5.89456323 6.36308045 3.3125 4.0625 C2.68988281 3.51722656 2.06726563 2.97195313 1.42578125 2.41015625 C0.95527344 1.94480469 0.48476562 1.47945313 0 1 C0 0.67 0 0.34 0 0 Z " fill="#B9432B" transform="translate(103,342)"/>
<path d="M0 0 C1.65 0 3.3 0 5 0 C6.06652192 2.30368736 7.06421005 4.64018187 8 7 C7.67 7.66 7.34 8.32 7 9 C5.83037314 7.69013727 4.66437056 6.3770374 3.5 5.0625 C2.8503125 4.33160156 2.200625 3.60070312 1.53125 2.84765625 C0 1 0 1 0 0 Z " fill="#A33A25" transform="translate(90,328)"/>
<path d="M0 0 C0.99 0 1.98 0 3 0 C1.41037341 4.03520597 -0.28232318 8.01811282 -2 12 C-2.33 12 -2.66 12 -3 12 C-3.33 10.02 -3.66 8.04 -4 6 C-3.01 6 -2.02 6 -1 6 C-1.020625 5.195625 -1.04125 4.39125 -1.0625 3.5625 C-1 1 -1 1 0 0 Z " fill="#A0712C" transform="translate(88,140)"/>
<path d="M0 0 C-3.465 2.97 -3.465 2.97 -7 6 C-7.33 4.02 -7.66 2.04 -8 0 C-4.63458162 -1.08174162 -3.70152678 -0.92538169 0 0 Z " fill="#BF862F" transform="translate(129,93)"/>
<path d="M0 0 C0.33 1.32 0.66 2.64 1 4 C1.66 4.33 2.32 4.66 3 5 C2.67 6.65 2.34 8.3 2 10 C1.01 10 0.02 10 -1 10 C-1.99 10.495 -1.99 10.495 -3 11 C-2.01 7.37 -1.02 3.74 0 0 Z " fill="#AB752D" transform="translate(62,144)"/>
<path d="M0 0 C0 0.66 0 1.32 0 2 C-0.66 2 -1.32 2 -2 2 C-2.20625 2.639375 -2.4125 3.27875 -2.625 3.9375 C-4 6 -4 6 -7.125 6.75 C-8.548125 6.87375 -8.548125 6.87375 -10 7 C-3.18421053 0 -3.18421053 0 0 0 Z " fill="#AE7A2E" transform="translate(130,63)"/>
<path d="M0 0 C0.1875 3.375 0.1875 3.375 0 7 C-0.99 7.66 -1.98 8.32 -3 9 C-3 8.34 -3 7.68 -3 7 C-3.66 7 -4.32 7 -5 7 C-4.6875 4.625 -4.6875 4.625 -4 2 C-1 0 -1 0 0 0 Z " fill="#F9AE30" transform="translate(66,148)"/>
<path d="M0 0 C4.455 0.99 4.455 0.99 9 2 C9 2.66 9 3.32 9 4 C5.7 4 2.4 4 -1 4 C-0.67 2.68 -0.34 1.36 0 0 Z " fill="#F44E2E" transform="translate(166,360)"/>
<path d="M0 0 C0.33 0 0.66 0 1 0 C0.67 4.62 0.34 9.24 0 14 C-2.66053508 11.33946492 -2.78483954 9.72944805 -3 6 C-1.5625 2.625 -1.5625 2.625 0 0 Z " fill="#FBAA3D" transform="translate(58,165)"/>
<path d="M0 0 C2.34914492 2.34914492 2.73140357 3.95679446 3.625 7.125 C3.88539062 8.03507812 4.14578125 8.94515625 4.4140625 9.8828125 C4.70410156 10.93082031 4.70410156 10.93082031 5 12 C2.69857565 10.21825212 1.19965609 8.83695835 0.51171875 5.953125 C0.27676898 3.9753389 0.13248542 1.98728128 0 0 Z " fill="#7A2C21" transform="translate(81,265)"/>
<path d="M0 0 C2.64 1.98 5.28 3.96 8 6 C6.68 6.33 5.36 6.66 4 7 C0 2.25 0 2.25 0 0 Z " fill="#A4382B" transform="translate(124,330)"/>
<path d="M0 0 C1.65 1.65 3.3 3.3 5 5 C3.68 5.33 2.36 5.66 1 6 C-0.0625 4.125 -0.0625 4.125 -1 2 C-0.67 1.34 -0.34 0.68 0 0 Z " fill="#AC3E27" transform="translate(100,303)"/>
<path d="M0 0 C0.33 0.66 0.66 1.32 1 2 C-0.3125 4.625 -0.3125 4.625 -2 7 C-2.66 7 -3.32 7 -4 7 C-3.6875 4.625 -3.6875 4.625 -3 2 C-2.01 1.34 -1.02 0.68 0 0 Z " fill="#C98E32" transform="translate(81,112)"/>
<path d="M0 0 C1.98 0 3.96 0 6 0 C3.14693203 2.32472205 0.45925163 3.7508258 -3 5 C-3 4.01 -3 3.02 -3 2 C-2.01 2 -1.02 2 0 2 C0 1.34 0 0.68 0 0 Z " fill="#9E712E" transform="translate(158,70)"/>
<path d="M0 0 C2.4375 0.8125 2.4375 0.8125 5 2 C5.33 2.99 5.66 3.98 6 5 C5.01 6.485 5.01 6.485 4 8 C2.68 5.36 1.36 2.72 0 0 Z " fill="#A03828" transform="translate(72,302)"/>
<path d="M0 0 C2.29013653 3.4352048 2.17842973 4.985331 2 9 C1.01 8.34 0.02 7.68 -1 7 C-0.67 4.69 -0.34 2.38 0 0 Z " fill="#B93E2D" transform="translate(79,259)"/>
<path d="M0 0 C1.32 0 2.64 0 4 0 C3.25 5.75 3.25 5.75 1 8 C0.67 5.36 0.34 2.72 0 0 Z " fill="#9B6C27" transform="translate(79,157)"/>
<path d="M0 0 C1.98 1.65 3.96 3.3 6 5 C3 6 3 6 0 6 C0 4.02 0 2.04 0 0 Z " fill="#A83B2B" transform="translate(110,316)"/>
<path d="M0 0 C-2.98646769 1.99097846 -5.59687262 2.94124926 -9 4 C-9 3.01 -9 2.02 -9 1 C-6.04335481 -0.4783226 -3.25770263 -0.06032783 0 0 Z " fill="#A47231" transform="translate(179,64)"/>
<path d="M0 0 C0 0.99 0 1.98 0 3 C-0.99 3.33 -1.98 3.66 -3 4 C-5.1875 2.5625 -5.1875 2.5625 -7 1 C-4 0 -4 0 0 0 Z " fill="#B57B2B" transform="translate(190,37)"/>
</svg>
